<svg data-v-0dd9719b="" version="1.0" xmlns="http://www.w3.org/2000/svg" xmlns:xlink="http://www.w3.org/1999/xlink"
  width="100%" height="100%" viewBox="0 0 340.000000 250.000000" preserveAspectRatio="xMidYMid meet"
  color-interpolation-filters="sRGB" style="margin: auto;">
  <rect data-v-0dd9719b="" x="0" y="0" width="100%" height="100%" fill="#feffff" fill-opacity="1" class="background">
  </rect>
  <rect data-v-0dd9719b="" x="0" y="0" width="100%" height="100%" fill="url(#watermark)" fill-opacity="1"
    class="watermarklayer"></rect>
  <g data-v-0dd9719b="" fill="#0c0c0c" class="iconlinesvg-g iconlinesvg"
    transform="translate(82.86814093589783,108.82675743103027)">
    <g class="tp-name">
      <g transform="translate(0, 0)">
        <g data-gra="path-name" fill="#0c0c0c" transform="scale(1)">
          <path
            d="M10.27-3.84L10.27-3.84Q13.05-3.84 14.31-4.79Q15.58-5.73 15.58-7.44L15.58-7.44Q15.58-8.47 15.15-9.20Q14.72-9.94 13.93-10.53Q13.13-11.12 11.98-11.64Q10.84-12.15 9.37-12.64L9.37-12.64Q7.89-13.17 6.52-13.80Q5.15-14.44 4.11-15.38Q3.07-16.32 2.43-17.63Q1.80-18.94 1.80-20.78L1.80-20.78Q1.80-24.62 4.46-26.81Q7.12-29.00 11.70-29.00L11.70-29.00Q14.36-29.00 16.42-28.40Q18.49-27.81 19.67-27.12L19.67-27.12L18.08-22.94Q16.69-23.72 15.03-24.13Q13.37-24.54 11.62-24.54L11.62-24.54Q9.53-24.54 8.36-23.68Q7.20-22.82 7.20-21.27L7.20-21.27Q7.20-20.33 7.59-19.65Q7.98-18.98 8.69-18.45Q9.41-17.91 10.37-17.46Q11.33-17.01 12.47-16.61L12.47-16.61Q14.48-15.87 16.05-15.11Q17.63-14.36 18.71-13.31Q19.80-12.27 20.37-10.86Q20.94-9.45 20.94-7.44L20.94-7.44Q20.94-3.60 18.22-1.49Q15.50 0.61 10.27 0.61L10.27 0.61Q8.51 0.61 7.06 0.39Q5.60 0.16 4.48-0.16Q3.35-0.49 2.54-0.84Q1.72-1.19 1.23-1.47L1.23-1.47L2.74-5.69Q3.84-5.07 5.73-4.46Q7.61-3.84 10.27-3.84Z"
            transform="translate(-1.226993865030675, 31.738241308793462)"></path>
        </g>
      </g>
      <g transform="translate(23, 0)">
        <g data-gra="path-name" fill="#0c0c0c" transform="scale(1)">
          <path
            d="M3.15 0L3.15-20.70Q4.58-21.10 6.87-21.47Q9.16-21.84 11.94-21.84L11.94-21.84Q14.56-21.84 16.32-21.12Q18.08-20.41 19.12-19.12Q20.16-17.83 20.59-16.01Q21.02-14.19 21.02-12.02L21.02-12.02L21.02 0L16.07 0L16.07-11.25Q16.07-12.97 15.85-14.17Q15.62-15.38 15.11-16.13Q14.60-16.89 13.72-17.24Q12.84-17.59 11.57-17.59L11.57-17.59Q10.63-17.59 9.61-17.46Q8.59-17.34 8.10-17.26L8.10-17.26L8.10 0L3.15 0Z"
            transform="translate(-3.1492842535787324, 31.738241308793462)"></path>
        </g>
      </g>
      <g transform="translate(44, 1.3813054234337532)">
        <g>
          <g class="imagesvg">
            <g>
              <rect fill="#0c0c0c" fill-opacity="0" stroke-width="2" x="0" y="0" width="26.99386503067485"
                height="29.589127394441295" class="image-rect"></rect> <svg filter="url(#colors241052269)" x="0" y="0"
                width="26.99386503067485" height="29.589127394441295" filtersec="colorsf286308376"
                class="image-svg-svg primary" style="overflow: visible;"><svg
                  xmlns:dc="http://purl.org/dc/elements/1.1/" xmlns:cc="http://creativecommons.org/ns#"
                  xmlns:rdf="http://www.w3.org/1999/02/22-rdf-syntax-ns#" xmlns:svg="http://www.w3.org/2000/svg"
                  xmlns="http://www.w3.org/2000/svg" xmlns:sodipodi="http://sodipodi.sourceforge.net/DTD/sodipodi-0.dtd"
                  xmlns:inkscape="http://www.inkscape.org/namespaces/inkscape" version="1.1" x="0px" y="0px"
                  viewBox="8.891226768493652 4.93731689453125 82.201904296875 90.1053237915039">
                  <g transform="translate(0,-952.36218)">
                    <path
                      d="M 49.96875 4.9375 A 3.0003 3.0003 0 0 0 47 8 L 47 16.59375 L 39.90625 10.6875 A 3.0003 3.0003 0 0 0 37.6875 9.96875 A 3.0003 3.0003 0 0 0 36.09375 15.28125 L 47 24.375 L 47 44.84375 L 29.375 34.84375 L 26.90625 20.59375 A 3.0003 3.0003 0 0 0 23.6875 18.0625 A 3.0003 3.0003 0 0 0 21 21.59375 L 22.625 31 L 14.46875 26.375 A 3.0003 3.0003 0 0 0 12.75 25.96875 A 3.0003 3.0003 0 0 0 11.53125 31.59375 L 19.25 36 L 10.90625 39.0625 A 3.0010171 3.0010171 0 1 0 13 44.6875 L 26.125 39.875 L 43.9375 50 L 26.125 60.09375 L 13 55.28125 A 3.0003 3.0003 0 0 0 11.53125 55.09375 A 3.0003 3.0003 0 0 0 10.90625 60.90625 L 19.28125 64 L 11.53125 68.375 A 3.0003 3.0003 0 1 0 14.46875 73.59375 L 22.625 68.96875 L 21 78.375 A 3.0003 3.0003 0 1 0 26.90625 79.375 L 29.375 65.125 L 47 55.125 L 47 75.59375 L 36.09375 84.6875 A 3.0003 3.0003 0 1 0 39.90625 89.28125 L 47 83.375 L 47 92 A 3.0003 3.0003 0 1 0 53 92 L 53 83.375 L 60.09375 89.28125 A 3.0003 3.0003 0 1 0 63.90625 84.6875 L 53 75.59375 L 53 55.125 L 70.625 65.125 L 73.09375 79.375 A 3.0003 3.0003 0 1 0 79 78.375 L 77.375 68.96875 L 85.53125 73.59375 A 3.0003 3.0003 0 1 0 88.46875 68.375 L 80.71875 64 L 89.09375 60.90625 A 3.0003 3.0003 0 0 0 87.78125 55.09375 A 3.0003 3.0003 0 0 0 87 55.28125 L 73.875 60.09375 L 56.0625 50 L 73.875 39.875 L 87 44.6875 A 3.0010171 3.0010171 0 1 0 89.09375 39.0625 L 80.75 36 L 88.46875 31.59375 A 3.0003 3.0003 0 0 0 86.84375 25.96875 A 3.0003 3.0003 0 0 0 85.53125 26.375 L 77.375 31 L 79 21.59375 A 3.0003 3.0003 0 0 0 75.90625 18.0625 A 3.0003 3.0003 0 0 0 73.09375 20.59375 L 70.625 34.84375 L 53 44.84375 L 53 24.375 L 63.90625 15.28125 A 3.0003 3.0003 0 1 0 60.09375 10.6875 L 53 16.59375 L 53 8 A 3.0003 3.0003 0 0 0 49.96875 4.9375 z "
                      transform="translate(0,952.36218)"></path>
                  </g>
                </svg></svg>
              <defs>
                <filter id="colors241052269">
                  <feColorMatrix type="matrix" values="0 0 0 0 0.046875  0 0 0 0 0.046875  0 0 0 0 0.046875  0 0 0 1 0"
                    class="icon-fecolormatrix"></feColorMatrix>
                </filter>
                <filter id="colorsf286308376">
                  <feColorMatrix type="matrix"
                    values="0 0 0 0 0.99609375  0 0 0 0 0.99609375  0 0 0 0 0.99609375  0 0 0 1 0"
                    class="icon-fecolormatrix"></feColorMatrix>
                </filter>
                <filter id="colorsb9705716339">
                  <feColorMatrix type="matrix" values="0 0 0 0 0  0 0 0 0 0  0 0 0 0 0  0 0 0 1 0"
                    class="icon-fecolormatrix"></feColorMatrix>
                </filter>
              </defs>
            </g>
          </g>
        </g>
      </g>
      <g transform="translate(74, 0)">
        <g data-gra="path-name" fill="#0c0c0c" transform="scale(1)">
          <path
            d="M15.91-13.46L15.91-13.46Q14.97-9.86 13.89-6.44Q12.80-3.03 11.74 0L11.74 0L7.69 0Q6.87-1.88 5.97-4.29Q5.07-6.71 4.17-9.45Q3.27-12.19 2.37-15.21Q1.47-18.24 0.61-21.39L0.61-21.39L5.85-21.39Q6.22-19.67 6.71-17.69Q7.20-15.71 7.73-13.64Q8.26-11.57 8.83-9.61Q9.41-7.65 9.98-6.01L9.98-6.01Q10.59-7.89 11.19-9.90Q11.78-11.90 12.31-13.91Q12.84-15.91 13.31-17.81Q13.78-19.71 14.15-21.39L14.15-21.39L17.96-21.39Q18.32-19.71 18.77-17.81Q19.22-15.91 19.73-13.91Q20.25-11.90 20.84-9.90Q21.43-7.89 22.04-6.01L22.04-6.01Q22.58-7.65 23.15-9.61Q23.72-11.57 24.27-13.64Q24.83-15.71 25.32-17.69Q25.81-19.67 26.18-21.39L26.18-21.39L31.29-21.39Q30.43-18.24 29.53-15.21Q28.63-12.19 27.73-9.45Q26.83-6.71 25.93-4.29Q25.03-1.88 24.17 0L24.17 0L20.16 0Q19.10-3.03 17.98-6.44Q16.85-9.86 15.91-13.46Z"
            transform="translate(-0.6134969325153374, 31.738241308793462)"></path>
        </g>
      </g>
      <g transform="translate(108, 0)">
        <g data-gra="path-name" fill="#0c0c0c" transform="scale(1)">
          <path
            d="M20.86-17.01L20.86-28.34L26.01-28.34L26.01 0L20.86 0L20.86-12.56L8.55-12.56L8.55 0L3.39 0L3.39-28.34L8.55-28.34L8.55-17.01L20.86-17.01Z"
            transform="translate(-3.3946830265848673, 31.738241308793462)"></path>
        </g>
      </g>
      <g transform="translate(134, 0)">
        <g data-gra="path-name" fill="#0c0c0c" transform="scale(1)">
          <path
            d="M20.70-21.39L20.70-0.65Q19.26-0.29 16.97 0.10Q14.68 0.49 11.94 0.49L11.94 0.49Q9.37 0.49 7.63-0.25Q5.89-0.98 4.85-2.29Q3.80-3.60 3.35-5.42Q2.90-7.24 2.90-9.41L2.90-9.41L2.90-21.39L7.85-21.39L7.85-10.18Q7.85-6.75 8.85-5.28Q9.86-3.80 12.35-3.80L12.35-3.80Q13.25-3.80 14.25-3.89Q15.26-3.97 15.75-4.09L15.75-4.09L15.75-21.39L20.70-21.39Z"
            transform="translate(-2.903885480572597, 31.738241308793462)"></path>
        </g>
      </g>
      <g transform="translate(155, 0)">
        <g data-gra="path-name" fill="#0c0c0c" transform="scale(1)">
          <path
            d="M17.34-10.76L17.34-10.76Q17.34-13.91 16.09-15.75Q14.85-17.59 12.15-17.59L12.15-17.59Q10.92-17.59 9.84-17.22Q8.75-16.85 8.10-16.40L8.10-16.40L8.10-4.09Q8.63-3.97 9.47-3.87Q10.31-3.76 11.49-3.76L11.49-3.76Q14.23-3.76 15.79-5.62Q17.34-7.48 17.34-10.76ZM22.41-10.67L22.41-10.67Q22.41-8.10 21.66-6.03Q20.90-3.97 19.49-2.49Q18.08-1.02 16.07-0.25Q14.07 0.53 11.53 0.53L11.53 0.53Q9.08 0.53 6.85 0.16Q4.62-0.20 3.15-0.65L3.15-0.65L3.15-30.92L8.10-31.74L8.10-20.65Q8.96-21.10 10.20-21.47Q11.45-21.84 12.97-21.84L12.97-21.84Q15.21-21.84 16.99-21.04Q18.77-20.25 19.96-18.77Q21.15-17.30 21.78-15.24Q22.41-13.17 22.41-10.67Z"
            transform="translate(-3.149284253578733, 31.738241308793462)"></path>
        </g>
      </g>
    </g>
  </g>
  <defs v-gra="od"></defs>
</svg>